Coordinates
version=1
nRows=7
nColumns=63
inDegrees=yes

Units are S.I. units (second, meters, Newtons, ...)
If the header above contains a line with 'inDegrees', this indicates whether rotational values are in degrees (yes) or radians (no).

endheader
time	pelvis_tilt	pelvis_list	pelvis_rotation	pelvis_tx	pelvis_ty	pelvis_tz	hip_flexion_r	hip_adduction_r	hip_rotation_r	knee_angle_r	knee_angle_r_beta	ankle_angle_r	subtalar_angle_r	mtp_angle_r	hip_flexion_l	hip_adduction_l	hip_rotation_l	knee_angle_l	knee_angle_l_beta	ankle_angle_l	subtalar_angle_l	mtp_angle_l	L5_S1_Flex_Ext	L5_S1_Lat_Bending	L5_S1_axial_rotation	L4_L5_Flex_Ext	L4_L5_Lat_Bending	L4_L5_axial_rotation	L3_L4_Flex_Ext	L3_L4_Lat_Bending	L3_L4_axial_rotation	L2_L3_Flex_Ext	L2_L3_Lat_Bending	L2_L3_axial_rotation	L1_L2_Flex_Ext	L1_L2_Lat_Bending	L1_L2_axial_rotation	L1_T12_Flex_Ext	L1_T12_Lat_Bending	L1_T12_axial_rotation	Abs_r3	Abs_r2	Abs_r1	Abs_t1	Abs_t2	neck_flexion	neck_bending	neck_rotation	arm_flex_r	arm_add_r	arm_rot_r	elbow_flex_r	pro_sup_r	wrist_flex_r	wrist_dev_r	arm_flex_l	arm_add_l	arm_rot_l	elbow_flex_l	pro_sup_l	wrist_flex_l	wrist_dev_l
      2.62711864	      3.75516906	     -1.75631889	     91.87506174	      0.24465825	      0.71770758	      0.61216930	      7.02698205	      2.30097681	     -0.34360175	     12.14975695	      0.21205326	     27.89068536	    -11.98929506	      0.00000000	      0.95802500	     -3.38686576	     -9.25212466	      4.32591154	      0.07550140	     31.87480105	     11.49746987	      0.00000000	     -0.11007428	      0.85361708	     -0.75072289	     -0.20441895	      1.13531072	     -0.79764308	     -0.18084104	      2.07548457	     -0.79764308	     -0.12580390	      2.07548457	     -0.65688253	     -0.10221498	      1.74069595	     -0.60996235	     -0.06289645	      1.32225286	     -0.56304217	     -0.78624961	      9.65628713	     -4.17529552	      0.00000000	      0.00000000	     24.18404620	     -5.03494071	     -5.58306479	     46.57948196	    -12.45863987	     20.72312210	    133.88092319	     88.14283971	    -11.29761568	      5.62417985	     -0.67914309	    -16.40494606	     19.66001110	    103.68984385	     75.41345719	     -1.20760554	     13.31541725
      2.64406780	      3.76287399	     -1.52114416	     92.36663531	      0.24381184	      0.71775963	      0.61262472	      6.73408138	      2.23100409	     -0.73457736	     12.14119738	      0.21190387	     28.16240065	    -11.89857787	      0.00000000	      0.75236697	     -3.35228018	     -8.69847608	      4.15464628	      0.07251226	     31.97524615	     11.73353775	      0.00000000	     -0.13326507	      0.86088023	     -0.86465713	     -0.24748657	      1.14497071	     -0.91869820	     -0.21894119	      2.09314419	     -0.91869820	     -0.15230865	      2.09314419	     -0.75657499	     -0.12374995	      1.75550696	     -0.70253392	     -0.07614766	      1.33350348	     -0.64849285	     -0.95189909	      9.73844933	     -4.80896357	      0.00000000	      0.00000000	     23.59229943	     -4.91209007	     -5.25040571	     46.54229138	    -12.27044354	     20.34342126	    135.08498294	     88.28572771	    -10.82483817	      6.54568575	     -2.33374737	    -15.74157999	     18.61463799	    101.81739759	     79.40511941	     -0.04956329	     12.32761050
      2.66101695	      3.69099823	     -1.30207928	     92.64599203	      0.24358721	      0.71789829	      0.61260416	      6.40699716	      2.13752092	     -0.84005879	     12.05110347	      0.21033143	     28.45891352	    -11.73690613	      0.00000000	      0.45755154	     -3.26054190	     -8.37606919	      3.88449391	      0.06779721	     32.04429391	     11.96520763	      0.00000000	     -0.14747632	      0.85250680	     -0.92864490	     -0.27387827	      1.13383404	     -0.98668521	     -0.24228885	      2.07278503	     -0.98668521	     -0.16855069	      2.07278503	     -0.81256429	     -0.13694651	      1.73843186	     -0.75452398	     -0.08426797	      1.32053303	     -0.69648367	     -1.05340861	      9.64372739	     -5.16484434	      0.00000000	      0.00000000	     22.73619586	     -4.89549933	     -5.19277720	     46.43113693	    -12.18859405	     20.24182583	    136.22998943	     88.41229266	    -11.00382593	      7.08762826	     -4.14848854	    -15.23960901	     17.53863845	    100.63549566	     80.95601266	      0.13992764	     11.70695376
      2.67796610	      3.55927137	     -1.02740782	     92.84192984	      0.24334450	      0.71809187	      0.61232577	      6.03930976	      1.98933178	     -0.78762972	     12.04281399	      0.21018676	     28.91024390	    -11.66100132	      0.00000000	      0.18864218	     -3.13988026	     -8.08448752	      3.90112697	      0.06808751	     32.30047227	     12.13806580	      0.00000000	     -0.17322526	      0.84060154	     -0.92351778	     -0.32169663	      1.11800005	     -0.98123764	     -0.28459178	      2.04383859	     -0.98123764	     -0.19797915	      2.04383859	     -0.80807806	     -0.16085698	      1.71415467	     -0.75035820	     -0.09898091	      1.30209179	     -0.69263833	     -1.23733071	      9.50905278	     -5.13632883	      0.00000000	      0.00000000	     22.11737685	     -5.04623491	     -5.04895987	     46.38645903	    -12.35263940	     20.12414126	    137.05490750	     88.48535459	    -11.14998919	      7.28403983	     -5.66861442	    -14.72338733	     16.72942192	     99.82747998	     81.55999242	     -0.06825679	     11.37933475
      2.69491525	      3.51835861	     -0.91779282	     93.00149459	      0.24382730	      0.71812204	      0.61175475	      5.77389026	      1.98748372	     -0.79727871	     11.88949369	      0.20751081	     29.13392541	    -11.46505939	      0.00000000	      0.00096400	     -3.14208242	     -7.94536786	      3.78626636	      0.06608281	     32.32262369	     12.20043296	      0.00000000	     -0.18453098	      0.83369888	     -0.94743466	     -0.34269248	      1.10881951	     -1.00664932	     -0.30316594	      2.02705546	     -1.00664932	     -0.21090046	      2.02705546	     -0.82900533	     -0.17135547	      1.70007876	     -0.76979066	     -0.10544100	      1.29139957	     -0.71057599	     -1.31808633	      9.43096851	     -5.26934734	      0.00000000	      0.00000000	     21.56528202	     -5.28255313	     -5.07402717	     46.37007497	    -12.24551444	     20.50264187	    137.39354248	     88.49989035	    -11.26807805	      7.63494293	     -7.19933041	    -14.59969966	     15.78203517	     99.63644067	     82.27099040	     -0.44992179	     10.74184537
      2.71186441	      3.49543662	     -0.90863574	     93.22364646	      0.24375404	      0.71787747	      0.61088765	      5.54149377	      1.94595346	     -0.97407580	     11.63431840	      0.20305716	     29.31338669	    -11.15120214	      0.00000000	     -0.12680855	     -3.13092203	     -7.70937637	      3.64862860	      0.06368058	     32.16684806	     12.21338282	      0.00000000	     -0.18623082	      0.83835496	     -1.04843208	     -0.34584926	      1.11501209	     -1.11395909	     -0.30595861	      2.03837624	     -1.11395909	     -0.21284320	      2.03837624	     -0.91737807	     -0.17293394	      1.70957343	     -0.85185107	     -0.10641229	      1.29861183	     -0.78632406	     -1.33022812	      9.48363893	     -5.83106472	      0.00000000	      0.00000000	     21.18180825	     -5.81289762	     -4.83384220	     46.48308730	    -11.86199733	     21.12120410	    137.03870128	     88.44607583	    -11.52137524	      8.01986615	     -8.83470996	    -14.40306897	     14.65266082	     99.85289141	     83.40129747	     -1.52737939	      9.41687983
      2.72881356	      3.62320450	     -0.87155391	     93.82363773	      0.24331288	      0.71752476	      0.61053709	      5.36298033	      2.02070531	     -1.79075688	     11.51586015	      0.20098968	     29.40504295	    -10.71334461	      0.00000000	     -0.11247437	     -3.29985579	     -6.99317423	      3.68708299	      0.06435174	     32.08396517	     11.88788998	      0.00000000	     -0.20195691	      0.86023611	     -1.17438564	     -0.37505417	      1.14411403	     -1.24778475	     -0.33179500	      2.09157808	     -1.24778475	     -0.23081655	      2.09157808	     -1.02758744	     -0.18753718	      1.75419348	     -0.95418833	     -0.11539818	      1.33250574	     -0.88078923	     -1.44255798	      9.73116295	     -6.53158063	      0.00000000	      0.00000000	     21.10592683	     -5.93612270	     -4.03529577	     46.72033502	    -11.83367459	     21.85602756	    135.95177920	     88.36331286	    -12.31136850	      7.40840010	     -9.68373343	    -14.60684715	     14.36433696	    100.14946726	     84.58532530	     -3.72782087	      7.79261577
